<svg version="1" xmlns="http://www.w3.org/2000/svg" width="682.667" height="682.667" viewBox="0 0 512.000000 512.000000"><path d="M249.6 4.7c-.1.1-4.9.5-10.6.8-11 .7-16.5 1.2-16.5 1.5 0 .1-1.6.4-3.5.6-8 .9-14.6 2.1-17 3-.8.3-2.8.8-4.5 1.1-1.6.2-5.5 1.2-8.5 2.1-3 .8-5.9 1.7-6.5 1.8-5 1.2-23.1 8.2-30.5 11.7-2.5 1.1-4.7 2.1-5 2.2-.7.1-13.2 6.7-15.1 8-.9.5-3.4 2-5.5 3.3-3.7 2.1-8.6 5.3-15 9.6-2.9 1.9-14.6 11.1-19.3 15.1-1.3 1.1-5.6 5-9.5 8.7-3.9 3.7-7.4 6.8-7.8 6.8-.5 0-.8.5-.8 1.2 0 .6-1.7 2.8-3.8 4.8-4.5 4.5-10.8 12-14.2 17-.8 1.2-2.3 3.1-3.3 4.3-3 3.5-14.7 22.3-14.7 23.5 0 .7-.4 1.2-1 1.2-.5 0-1 .7-1 1.5s-.4 1.5-1 1.5c-.5 0-1 .4-1 1 0 .5-1.7 4.4-3.8 8.7-3.6 7.5-11.2 25.5-11.6 27.7-.2.6-1.5 4.9-3 9.6-1.5 4.7-2.9 9.6-3.1 11-.2 1.4-.4 2.5-.5 2.5-.2 0-.9 3.1-1.4 6-.2 1.1-.6 2.7-.9 3.5-.4.8-.8 3.3-1.1 5.5-.3 2.2-.7 5-1 6.3-2.8 12.9-3.4 49.4-1.1 67.6.3 2.6.8 6.2 1 8 .5 4 2.1 12.4 2.5 13.6.1.3.2.8.1 1.2-.1 1.2 4 16.2 6.7 24.3 1.4 4.4 2.7 8.2 2.7 8.5.1.3.7 1.8 1.3 3.3.7 1.5 1.5 3.9 1.8 5.3.3 1.3 1 2.7 1.5 3 .5.3.7 1 .4 1.5-.4.5-.1.9.6.9s1 .3.7.6c-.7.6 6.8 16.2 12.5 25.9 6.4 10.9 17.4 27 21.2 31.1 1.1 1.1 3.4 3.8 5 5.9 1.7 2.2 6 7 9.6 10.7 3.6 3.7 6.3 7 6.1 7.3-.3.3-.1.5.5.5s2.6 1.4 4.4 3.1c1.9 1.8 6.1 5.5 9.4 8.3 3.3 2.8 6.2 5.4 6.3 5.8.2.5.8.8 1.3.8 1 0 2.3 1 5.7 4.1 2.1 1.9 13 9 13.7 8.9.3 0 1.5.9 2.7 1.9 1.1 1.1 2.5 1.8 3 1.5.4-.3.8-.1.8.5 0 .5 1 1.3 2.3 1.7 1.2.4 2.4 1 2.7 1.4.3.4 3.9 2.4 8 4.4 4.1 2.1 9.2 4.7 11.2 5.8 2.1 1 3.9 1.8 4 1.7.2-.1 2.1.6 4.3 1.6 6.8 2.9 32.3 11.3 32.8 10.8.3-.2 1.4 0 2.5.6s3.5 1.3 5.3 1.5c1.9.3 5.7.9 8.4 1.5 2.8.5 7 1.2 9.5 1.6 2.5.3 5.6.8 7 1 10.1 1.7 54 2.1 54 .5 0-.3 1.9-.5 4.3-.6 2.3-.1 5.8-.4 7.7-.8 1.9-.4 5.5-.9 8-1.2 5.6-.7 8.4-1.2 8.8-1.4.3-.3 1.1-.5 6-1.4 2.3-.4 4.2-1.2 4.2-1.7 0-.6.4-.8 1-.4 2 1.2 41-12.7 41-14.7 0-.4.7-.5 1.5-.2.8.4 1.5.1 1.5-.5s.7-1.1 1.5-1.1c1.6 0 26.2-13.9 31-17.6 1.8-1.3 3.7-2.4 4.3-2.4.6 0 1.2-.4 1.4-.9.2-.5 4.4-4.1 9.4-8 5.1-3.8 13.2-10.8 18-15.6 4.8-4.7 9.2-8.5 9.6-8.5.4 0 .8-.7.8-1.5 0-.7.6-1.8 1.3-2.2 1.4-.9 7.1-7.3 10.7-12.2 1.4-1.8 3-3.8 3.5-4.4.6-.7 2.8-3.7 5-6.7s4.2-5.7 4.5-6c.3-.3 1-1.4 1.6-2.5 2.8-5.2 3.9-7 4.5-7.5.6-.5 12.3-22 12.5-23 0-.3.8-2.3 1.8-4.5 2.8-6.7 3.3-8 3.5-9 .2-.6.6-1.5 1.1-2 1.1-1.4 8.5-24.8 10-31.5.6-3 1.4-6.2 1.7-7 .3-.8.7-2.9.9-4.5.2-1.7.6-4.1.9-5.5 1.2-5.2 2.7-17.9 3.1-26.5.1-3.3.3-6.2.4-6.5.8-2.3-.3-30.4-1.6-40.4-1.2-9.2-2-14.6-2.8-18.3-.4-1.5-.9-4.1-1.2-5.7-.3-1.6-.9-3.7-1.4-4.6-.5-1-.7-2-.4-2.2.6-.7-8.3-28.3-10.7-32.9-1-2-1.5-3.9-1.2-4.3.4-.3 0-.6-.7-.6s-1.1-.3-.7-.6c.3-.3-2.5-6.4-6.1-13.6-8.6-16.7-9.7-18.6-11.6-20.7-.9-1-1.6-2.3-1.6-2.9 0-.7-.4-1.2-1-1.2-.5 0-1-.4-1-1 0-1.2-10.4-15.3-16.9-23-7.6-9-24.1-25.2-32.6-32.1-11.1-9-19.2-14.9-20.5-14.9-.5 0-1-.5-1-1 0-.6-.7-1-1.5-1s-1.5-.4-1.5-.9-1.4-1.4-3.1-2.1c-1.7-.7-3.6-1.8-4.2-2.4-2-1.8-20.6-11.2-30.2-15.2-11.1-4.6-31.7-11.5-32.3-10.9-.3.2-1.3 0-2.4-.6-1.1-.6-2.9-1.2-4.1-1.4-1.2-.3-4.2-.9-6.7-1.4-4.5-1-9.9-1.9-15.5-2.6-1.6-.2-3-.4-3-.5 0-.7-39.3-2.9-39.9-2.3z"/></svg>